<svg version="1.1" id="Layer_1" xmlns="http://www.w3.org/2000/svg" xmlns:xlink="http://www.w3.org/1999/xlink" x="0px" y="0px"
	 width="100%" viewBox="0 0 1000 999" enable-background="new 0 0 1000 999" xml:space="preserve">
<path fill="#000000" opacity="1.000000" stroke="none" 
	d="
M1001.000000,536.000000 
	C1001.000000,690.594849 1001.000000,845.189758 1001.000000,1000.000000 
	C848.642639,1000.000000 696.285217,1000.000000 543.125244,999.650879 
	C543.499939,998.867981 544.649109,998.169189 545.858521,998.041870 
	C556.111023,996.962891 566.471558,996.561462 576.611450,994.844788 
	C591.116211,992.389221 605.525330,989.268005 619.862915,985.946106 
	C652.962769,978.276978 684.866089,967.024353 715.357422,952.071655 
	C730.449768,944.670532 745.094849,936.319336 759.708191,927.987427 
	C790.265991,910.564636 817.653870,888.790527 843.302795,864.912109 
	C855.627930,853.437744 866.827881,840.721069 878.172913,828.235779 
	C894.054077,810.758423 907.789978,791.654907 920.763000,771.910278 
	C938.678467,744.643433 953.369324,715.720215 965.560608,685.600403 
	C975.233154,661.703064 982.702087,637.022644 988.248291,611.731567 
	C993.527954,587.656006 997.551819,563.482605 999.077576,538.885620 
	C999.139465,537.887878 1000.333496,536.960327 1001.000000,536.000000 
z"/>
<path fill="#000000" opacity="1.000000" stroke="none" 
	d="
M459.000000,1000.000000 
	C306.404297,1000.000000 153.808563,1000.000000 1.000000,1000.000000 
	C1.000000,845.975952 1.000000,691.951843 1.353410,537.129761 
	C2.136945,537.345520 2.824044,538.326233 2.958687,539.377747 
	C5.008774,555.388489 6.230107,571.549255 9.177006,587.389893 
	C12.686663,606.255676 17.161163,624.982666 22.118650,643.528931 
	C29.850067,672.452637 41.203907,700.124268 55.160866,726.520874 
	C65.863235,746.761963 77.884071,766.381042 90.415062,785.560364 
	C104.638092,807.329346 121.567017,827.106812 139.527512,845.911804 
	C147.302444,854.052246 155.516418,861.809753 163.921875,869.302795 
	C175.168747,879.328918 186.174347,889.801575 198.405029,898.506836 
	C216.557770,911.427246 235.500443,923.278320 254.458984,935.015869 
	C278.848114,950.115601 304.963562,961.822693 332.115936,970.866150 
	C351.973206,977.479858 372.280182,982.811523 392.541077,988.126221 
	C413.359650,993.587219 434.658936,996.415466 456.113403,998.075867 
	C457.119263,998.153687 458.039764,999.333435 459.000000,1000.000000 
z"/>
<path fill="#000000" opacity="1.000000" stroke="none" 
	d="
M0.999996,464.000000 
	C1.000000,309.738403 1.000000,155.476807 1.000000,1.000000 
	C153.357346,1.000000 305.714783,1.000000 458.874573,1.349180 
	C458.999390,2.121383 458.356171,2.839267 457.639099,2.922762 
	C448.386688,4.000104 439.071686,4.650949 429.875641,6.075340 
	C415.940063,8.233845 401.967255,10.390575 388.222504,13.489440 
	C364.452545,18.848572 341.207977,26.063063 318.487732,34.964127 
	C294.520691,44.353649 271.170013,55.149822 249.269547,68.570129 
	C230.521500,80.058662 212.481155,92.801346 194.795883,105.891907 
	C181.807571,115.505791 169.262268,125.922523 157.673782,137.170654 
	C143.711685,150.722672 130.483871,165.117447 117.849419,179.924881 
	C106.897774,192.760086 96.728737,206.340469 87.093811,220.203110 
	C73.538361,239.706543 61.515312,260.186584 51.615646,281.842041 
	C46.513706,293.002472 40.780251,303.919342 36.401012,315.355591 
	C27.174517,339.450378 19.303328,363.967896 13.754240,389.264252 
	C8.545747,413.007935 4.519445,436.843170 2.922935,461.095764 
	C2.856718,462.101685 1.666537,463.033600 0.999996,464.000000 
z"/>
<path fill="#000000" opacity="1.000000" stroke="none" 
	d="
M543.000000,1.000008 
	C695.595764,1.000000 848.191589,1.000000 1001.000000,1.000000 
	C1001.000000,155.357346 1001.000000,309.714783 1000.647949,464.874969 
	C999.864868,464.665283 999.155029,463.682190 999.045044,462.636017 
	C997.642578,449.294006 997.132690,435.799530 994.791321,422.629120 
	C991.598877,404.672089 987.311951,386.890686 982.985413,369.158173 
	C974.534851,334.523071 961.540771,301.538940 944.508423,270.288483 
	C934.235779,251.440567 923.599182,232.610825 911.171936,215.164886 
	C896.912598,195.146698 881.087036,176.142197 864.800049,157.706055 
	C854.003906,145.485275 841.559021,134.624756 829.200073,123.907310 
	C816.154175,112.594131 802.837219,101.461113 788.747192,91.511978 
	C759.352783,70.756241 728.022156,53.194378 694.746460,39.418896 
	C665.949646,27.497549 636.335754,18.071722 605.709412,11.788238 
	C585.901428,7.724321 566.059265,4.348927 545.886841,2.922967 
	C544.884216,2.852092 543.960449,1.666538 543.000000,1.000008 
z"/>
<path fill="#00EBFF" opacity="1.000000" stroke="none" 
	d="
M542.531372,1.000008 
	C543.960449,1.666538 544.884216,2.852092 545.886841,2.922967 
	C566.059265,4.348927 585.901428,7.724321 605.709412,11.788238 
	C636.335754,18.071722 665.949646,27.497549 694.746460,39.418896 
	C728.022156,53.194378 759.352783,70.756241 788.747192,91.511978 
	C802.837219,101.461113 816.154175,112.594131 829.200073,123.907310 
	C841.559021,134.624756 854.003906,145.485275 864.800049,157.706055 
	C881.087036,176.142197 896.912598,195.146698 911.171936,215.164886 
	C923.599182,232.610825 934.235779,251.440567 944.508423,270.288483 
	C961.540771,301.538940 974.534851,334.523071 982.985413,369.158173 
	C987.311951,386.890686 991.598877,404.672089 994.791321,422.629120 
	C997.132690,435.799530 997.642578,449.294006 999.045044,462.636017 
	C999.155029,463.682190 999.864868,464.665283 1000.647949,465.338867 
	C1001.000000,488.354218 1001.000000,511.708466 1001.000000,535.531372 
	C1000.333496,536.960327 999.139465,537.887878 999.077576,538.885620 
	C997.551819,563.482605 993.527954,587.656006 988.248291,611.731567 
	C982.702087,637.022644 975.233154,661.703064 965.560608,685.600403 
	C953.369324,715.720215 938.678467,744.643433 920.763000,771.910278 
	C907.789978,791.654907 894.054077,810.758423 878.172913,828.235779 
	C866.827881,840.721069 855.627930,853.437744 843.302795,864.912109 
	C817.653870,888.790527 790.265991,910.564636 759.708191,927.987427 
	C745.094849,936.319336 730.449768,944.670532 715.357422,952.071655 
	C684.866089,967.024353 652.962769,978.276978 619.862915,985.946106 
	C605.525330,989.268005 591.116211,992.389221 576.611450,994.844788 
	C566.471558,996.561462 556.111023,996.962891 545.858521,998.041870 
	C544.649109,998.169189 543.499939,998.867981 542.661377,999.650879 
	C515.312439,1000.000000 487.624878,1000.000000 459.468658,1000.000000 
	C458.039764,999.333435 457.119263,998.153687 456.113403,998.075867 
	C434.658936,996.415466 413.359650,993.587219 392.541077,988.126221 
	C372.280182,982.811523 351.973206,977.479858 332.115936,970.866150 
	C304.963562,961.822693 278.848114,950.115601 254.458984,935.015869 
	C235.500443,923.278320 216.557770,911.427246 198.405029,898.506836 
	C186.174347,889.801575 175.168747,879.328918 163.921875,869.302795 
	C155.516418,861.809753 147.302444,854.052246 139.527512,845.911804 
	C121.567017,827.106812 104.638092,807.329346 90.415062,785.560364 
	C77.884071,766.381042 65.863235,746.761963 55.160866,726.520874 
	C41.203907,700.124268 29.850067,672.452637 22.118650,643.528931 
	C17.161163,624.982666 12.686663,606.255676 9.177006,587.389893 
	C6.230107,571.549255 5.008774,555.388489 2.958687,539.377747 
	C2.824044,538.326233 2.136945,537.345520 1.353410,536.665894 
	C1.000000,512.979126 1.000000,488.958221 0.999996,464.468658 
	C1.666537,463.033600 2.856718,462.101685 2.922935,461.095764 
	C4.519445,436.843170 8.545747,413.007935 13.754240,389.264252 
	C19.303328,363.967896 27.174517,339.450378 36.401012,315.355591 
	C40.780251,303.919342 46.513706,293.002472 51.615646,281.842041 
	C61.515312,260.186584 73.538361,239.706543 87.093811,220.203110 
	C96.728737,206.340469 106.897774,192.760086 117.849419,179.924881 
	C130.483871,165.117447 143.711685,150.722672 157.673782,137.170654 
	C169.262268,125.922523 181.807571,115.505791 194.795883,105.891907 
	C212.481155,92.801346 230.521500,80.058662 249.269547,68.570129 
	C271.170013,55.149822 294.520691,44.353649 318.487732,34.964127 
	C341.207977,26.063063 364.452545,18.848572 388.222504,13.489440 
	C401.967255,10.390575 415.940063,8.233845 429.875641,6.075340 
	C439.071686,4.650949 448.386688,4.000104 457.639099,2.922762 
	C458.356171,2.839267 458.999390,2.121383 459.338470,1.349180 
	C486.687561,1.000000 514.375122,1.000000 542.531372,1.000008 
M949.945496,311.609497 
	C947.893311,306.880737 945.999512,302.075653 943.762512,297.435974 
	C931.738403,272.496490 918.975098,247.900375 902.646545,225.498520 
	C889.509033,207.474380 875.791870,189.777924 861.113464,173.002182 
	C849.745483,160.009949 836.973877,148.116501 823.951294,136.735748 
	C809.355103,123.979691 794.310303,111.591995 778.494507,100.410507 
	C755.236084,83.967094 730.713135,69.352089 704.418030,58.215599 
	C684.694580,49.862312 664.705444,41.989143 644.404663,35.184963 
	C621.075073,27.365656 597.018433,22.068012 572.547363,19.012373 
	C558.116455,17.210428 543.688477,15.162484 529.194458,14.159626 
	C517.746460,13.367517 506.198120,14.125033 494.697266,13.973153 
	C475.387390,13.718147 456.191650,14.909360 437.123230,17.998514 
	C422.697540,20.335531 408.098846,21.927698 393.887268,25.198793 
	C358.901093,33.251610 324.967865,44.714527 292.566620,60.240028 
	C267.429749,72.284721 243.561218,86.534920 220.656570,102.552361 
	C197.617050,118.664124 176.105103,136.564713 156.514862,156.529465 
	C140.809784,172.534790 126.301720,189.829468 112.367241,207.426804 
	C96.797630,227.089111 83.279770,248.284561 71.867882,270.665985 
	C64.168297,285.766724 56.351494,300.926117 50.284939,316.711761 
	C42.316456,337.446411 34.922112,358.536835 29.321098,380.006531 
	C24.140068,399.866364 21.136757,420.352417 18.141689,440.705048 
	C15.949320,455.603088 14.440803,470.718903 14.223883,485.760681 
	C13.954683,504.427582 15.117635,523.129333 16.083921,541.794250 
	C16.616613,552.083801 17.286734,562.464844 19.180082,572.563721 
	C22.603699,590.824829 26.776936,608.955444 31.024691,627.049561 
	C37.426514,654.319275 47.547161,680.322083 59.342915,705.636414 
	C72.627487,734.145813 88.195198,761.419067 107.198219,786.532471 
	C118.320839,801.231506 129.664352,815.891357 142.223236,829.341187 
	C156.027863,844.125183 170.920547,857.979797 186.132065,871.336304 
	C198.207993,881.939636 211.153458,891.642151 224.286285,900.934204 
	C253.031128,921.272339 283.735748,938.277710 316.582245,950.988159 
	C335.945648,958.481201 355.748108,964.983826 375.680145,970.813904 
	C389.614136,974.889526 404.043152,977.394226 418.360260,980.000854 
	C430.044739,982.128174 441.877991,983.470154 453.671387,984.952454 
	C458.725433,985.587769 463.843811,985.727112 468.936279,986.037537 
	C479.947540,986.708923 490.961639,987.866211 501.973297,987.851440 
	C513.319702,987.836243 524.668396,986.724182 536.008850,985.981506 
	C544.861755,985.401733 553.806274,985.278870 562.528748,983.847778 
	C580.110107,980.963196 597.685059,977.840576 615.051636,973.888855 
	C648.037842,966.382935 679.687866,954.831604 710.218201,940.296753 
	C735.988464,928.028076 760.744934,913.896301 783.559875,896.734009 
	C799.983215,884.379578 816.051086,871.454407 831.388000,857.785767 
	C843.255249,847.209351 853.961243,835.287109 864.773987,823.584717 
	C872.766968,814.934204 880.617371,806.057556 887.620300,796.606567 
	C902.062866,777.115173 915.589600,757.021301 927.224304,735.627686 
	C939.448975,713.149536 950.363953,690.135010 958.980835,666.070496 
	C970.461365,634.008240 979.242371,601.245544 983.000305,567.294922 
	C984.782288,551.196289 987.027039,535.105469 987.792236,518.950928 
	C988.457458,504.908936 987.720886,490.759644 986.896179,476.699280 
	C986.042603,462.148407 984.921204,447.563660 982.852051,433.146545 
	C980.412231,416.147064 977.625305,399.117096 973.552734,382.451324 
	C967.697998,358.492828 960.091125,335.005249 949.945496,311.609497 
z"/>
<path fill="#000000" opacity="1.000000" stroke="none" 
	d="
M949.999756,312.000732 
	C960.091125,335.005249 967.697998,358.492828 973.552734,382.451324 
	C977.625305,399.117096 980.412231,416.147064 982.852051,433.146545 
	C984.921204,447.563660 986.042603,462.148407 986.896179,476.699280 
	C987.720886,490.759644 988.457458,504.908936 987.792236,518.950928 
	C987.027039,535.105469 984.782288,551.196289 983.000305,567.294922 
	C979.242371,601.245544 970.461365,634.008240 958.980835,666.070496 
	C950.363953,690.135010 939.448975,713.149536 927.224304,735.627686 
	C915.589600,757.021301 902.062866,777.115173 887.620300,796.606567 
	C880.617371,806.057556 872.766968,814.934204 864.773987,823.584717 
	C853.961243,835.287109 843.255249,847.209351 831.388000,857.785767 
	C816.051086,871.454407 799.983215,884.379578 783.559875,896.734009 
	C760.744934,913.896301 735.988464,928.028076 710.218201,940.296753 
	C679.687866,954.831604 648.037842,966.382935 615.051636,973.888855 
	C597.685059,977.840576 580.110107,980.963196 562.528748,983.847778 
	C553.806274,985.278870 544.861755,985.401733 536.008850,985.981506 
	C524.668396,986.724182 513.319702,987.836243 501.973297,987.851440 
	C490.961639,987.866211 479.947540,986.708923 468.936279,986.037537 
	C463.843811,985.727112 458.725433,985.587769 453.671387,984.952454 
	C441.877991,983.470154 430.044739,982.128174 418.360260,980.000854 
	C404.043152,977.394226 389.614136,974.889526 375.680145,970.813904 
	C355.748108,964.983826 335.945648,958.481201 316.582245,950.988159 
	C283.735748,938.277710 253.031128,921.272339 224.286285,900.934204 
	C211.153458,891.642151 198.207993,881.939636 186.132065,871.336304 
	C170.920547,857.979797 156.027863,844.125183 142.223236,829.341187 
	C129.664352,815.891357 118.320839,801.231506 107.198219,786.532471 
	C88.195198,761.419067 72.627487,734.145813 59.342915,705.636414 
	C47.547161,680.322083 37.426514,654.319275 31.024691,627.049561 
	C26.776936,608.955444 22.603699,590.824829 19.180082,572.563721 
	C17.286734,562.464844 16.616613,552.083801 16.083921,541.794250 
	C15.117635,523.129333 13.954683,504.427582 14.223883,485.760681 
	C14.440803,470.718903 15.949320,455.603088 18.141689,440.705048 
	C21.136757,420.352417 24.140068,399.866364 29.321098,380.006531 
	C34.922112,358.536835 42.316456,337.446411 50.284939,316.711761 
	C56.351494,300.926117 64.168297,285.766724 71.867882,270.665985 
	C83.279770,248.284561 96.797630,227.089111 112.367241,207.426804 
	C126.301720,189.829468 140.809784,172.534790 156.514862,156.529465 
	C176.105103,136.564713 197.617050,118.664124 220.656570,102.552361 
	C243.561218,86.534920 267.429749,72.284721 292.566620,60.240028 
	C324.967865,44.714527 358.901093,33.251610 393.887268,25.198793 
	C408.098846,21.927698 422.697540,20.335531 437.123230,17.998514 
	C456.191650,14.909360 475.387390,13.718147 494.697266,13.973153 
	C506.198120,14.125033 517.746460,13.367517 529.194458,14.159626 
	C543.688477,15.162484 558.116455,17.210428 572.547363,19.012373 
	C597.018433,22.068012 621.075073,27.365656 644.404663,35.184963 
	C664.705444,41.989143 684.694580,49.862312 704.418030,58.215599 
	C730.713135,69.352089 755.236084,83.967094 778.494507,100.410507 
	C794.310303,111.591995 809.355103,123.979691 823.951294,136.735748 
	C836.973877,148.116501 849.745483,160.009949 861.113464,173.002182 
	C875.791870,189.777924 889.509033,207.474380 902.646545,225.498520 
	C918.975098,247.900375 931.738403,272.496490 943.762512,297.435974 
	C945.999512,302.075653 947.893311,306.880737 949.999756,312.000732 
M931.949707,288.624329 
	C926.530151,278.496033 921.826660,267.896698 915.539917,258.338776 
	C902.992554,239.262619 890.014343,220.432510 876.397522,202.107544 
	C862.456238,183.345825 846.950623,165.848206 829.088135,150.610046 
	C815.888306,139.349487 803.314392,127.204422 789.255005,117.138809 
	C769.951416,103.318672 750.084412,90.058022 729.376648,78.495712 
	C711.389709,68.452606 692.056824,60.730972 673.034668,52.652214 
	C645.272522,40.861549 616.135925,33.388008 586.531494,28.231085 
	C566.773071,24.789284 546.719849,22.370943 526.701477,21.286495 
	C508.185303,20.283426 489.510284,21.129957 470.960571,22.158905 
	C455.140656,23.036432 439.296967,24.687992 423.651825,27.178326 
	C407.854370,29.692902 392.203674,33.310715 376.639648,37.070145 
	C350.389740,43.410717 325.119995,52.810066 300.704407,64.199928 
	C273.236145,77.013855 246.928391,91.927795 222.317520,109.836876 
	C196.386398,128.706696 171.769562,148.977356 150.524460,173.074387 
	C139.375961,185.719467 128.417587,198.556213 117.893005,211.721817 
	C101.168861,232.642700 87.378761,255.508514 74.993355,279.210358 
	C60.378036,307.179596 48.661377,336.340607 40.012321,366.696808 
	C32.987614,391.351959 27.866951,416.371399 24.873993,441.884583 
	C22.158764,465.030334 20.891218,488.199310 21.043091,511.470306 
	C21.061094,514.228943 21.746716,516.976746 21.986248,519.741455 
	C23.345390,535.428589 23.794010,551.254761 26.212645,566.774841 
	C29.298428,586.575989 33.617458,606.209167 38.029568,625.773804 
	C44.843033,655.986877 56.748779,684.418396 70.123917,712.199524 
	C80.517311,733.787354 92.799911,754.348633 106.525864,774.017273 
	C122.291229,796.608276 139.786850,817.792297 159.076492,837.436401 
	C167.392151,845.904907 176.243790,853.887695 185.253510,861.623413 
	C195.520935,870.438965 205.804428,879.348450 216.860580,887.105896 
	C232.602112,898.150940 248.680603,908.824707 265.289917,918.498596 
	C290.175873,932.993103 316.444824,944.720032 343.747192,954.007019 
	C372.441895,963.767517 401.638977,971.472168 431.815094,975.019714 
	C446.581055,976.755554 461.346558,979.505798 476.143768,979.731384 
	C499.138550,980.081848 522.184326,979.105103 545.160950,977.832458 
	C557.986389,977.122070 570.733582,974.802673 583.484558,972.987305 
	C604.656128,969.972961 625.228699,964.457947 645.630127,958.122192 
	C679.106873,947.725952 710.773315,933.350464 741.191895,916.016174 
	C769.825012,899.699402 796.210205,880.269714 820.835144,858.495361 
	C831.332397,849.213318 841.107422,839.044250 850.606262,828.722046 
	C861.366272,817.029480 871.846130,805.029236 881.731262,792.593079 
	C896.249512,774.328064 909.279053,754.943665 920.122559,734.276978 
	C929.046082,717.269714 937.664490,700.018066 945.008850,682.290833 
	C951.960632,665.511230 957.755371,648.168823 962.837708,630.718323 
	C969.733521,607.041565 975.011475,582.940796 977.039612,558.253723 
	C978.315491,542.722717 980.477844,527.214233 980.779724,511.667236 
	C981.096741,495.338409 980.088806,478.944366 978.875000,462.637268 
	C977.821838,448.487701 976.435242,434.276428 973.820984,420.350586 
	C970.216187,401.147827 965.956238,382.013947 960.818848,363.166229 
	C953.853455,337.611969 943.863403,313.112854 931.949707,288.624329 
z"/>
<path fill="#00EBFF" opacity="1.000000" stroke="none" 
	d="
M932.000427,289.004578 
	C943.863403,313.112854 953.853455,337.611969 960.818848,363.166229 
	C965.956238,382.013947 970.216187,401.147827 973.820984,420.350586 
	C976.435242,434.276428 977.821838,448.487701 978.875000,462.637268 
	C980.088806,478.944366 981.096741,495.338409 980.779724,511.667236 
	C980.477844,527.214233 978.315491,542.722717 977.039612,558.253723 
	C975.011475,582.940796 969.733521,607.041565 962.837708,630.718323 
	C957.755371,648.168823 951.960632,665.511230 945.008850,682.290833 
	C937.664490,700.018066 929.046082,717.269714 920.122559,734.276978 
	C909.279053,754.943665 896.249512,774.328064 881.731262,792.593079 
	C871.846130,805.029236 861.366272,817.029480 850.606262,828.722046 
	C841.107422,839.044250 831.332397,849.213318 820.835144,858.495361 
	C796.210205,880.269714 769.825012,899.699402 741.191895,916.016174 
	C710.773315,933.350464 679.106873,947.725952 645.630127,958.122192 
	C625.228699,964.457947 604.656128,969.972961 583.484558,972.987305 
	C570.733582,974.802673 557.986389,977.122070 545.160950,977.832458 
	C522.184326,979.105103 499.138550,980.081848 476.143768,979.731384 
	C461.346558,979.505798 446.581055,976.755554 431.815094,975.019714 
	C401.638977,971.472168 372.441895,963.767517 343.747192,954.007019 
	C316.444824,944.720032 290.175873,932.993103 265.289917,918.498596 
	C248.680603,908.824707 232.602112,898.150940 216.860580,887.105896 
	C205.804428,879.348450 195.520935,870.438965 185.253510,861.623413 
	C176.243790,853.887695 167.392151,845.904907 159.076492,837.436401 
	C139.786850,817.792297 122.291229,796.608276 106.525864,774.017273 
	C92.799911,754.348633 80.517311,733.787354 70.123917,712.199524 
	C56.748779,684.418396 44.843033,655.986877 38.029568,625.773804 
	C33.617458,606.209167 29.298428,586.575989 26.212645,566.774841 
	C23.794010,551.254761 23.345390,535.428589 21.986248,519.741455 
	C21.746716,516.976746 21.061094,514.228943 21.043091,511.470306 
	C20.891218,488.199310 22.158764,465.030334 24.873993,441.884583 
	C27.866951,416.371399 32.987614,391.351959 40.012321,366.696808 
	C48.661377,336.340607 60.378036,307.179596 74.993355,279.210358 
	C87.378761,255.508514 101.168861,232.642700 117.893005,211.721817 
	C128.417587,198.556213 139.375961,185.719467 150.524460,173.074387 
	C171.769562,148.977356 196.386398,128.706696 222.317520,109.836876 
	C246.928391,91.927795 273.236145,77.013855 300.704407,64.199928 
	C325.119995,52.810066 350.389740,43.410717 376.639648,37.070145 
	C392.203674,33.310715 407.854370,29.692902 423.651825,27.178326 
	C439.296967,24.687992 455.140656,23.036432 470.960571,22.158905 
	C489.510284,21.129957 508.185303,20.283426 526.701477,21.286495 
	C546.719849,22.370943 566.773071,24.789284 586.531494,28.231085 
	C616.135925,33.388008 645.272522,40.861549 673.034668,52.652214 
	C692.056824,60.730972 711.389709,68.452606 729.376648,78.495712 
	C750.084412,90.058022 769.951416,103.318672 789.255005,117.138809 
	C803.314392,127.204422 815.888306,139.349487 829.088135,150.610046 
	C846.950623,165.848206 862.456238,183.345825 876.397522,202.107544 
	C890.014343,220.432510 902.992554,239.262619 915.539917,258.338776 
	C921.826660,267.896698 926.530151,278.496033 932.000427,289.004578 
M451.664856,485.792450 
	C457.670441,497.269562 466.597534,505.435791 479.265259,508.641022 
	C497.051971,513.141541 511.307648,506.643829 522.989441,492.603638 
	C525.046265,507.216888 530.438110,511.406738 541.949463,507.695343 
	C541.949463,504.834961 542.015869,501.852264 541.908875,498.875793 
	C541.876892,497.986298 541.549255,496.486786 541.035339,496.331543 
	C536.070557,494.831512 537.013184,490.797821 537.010071,487.249146 
	C536.979980,453.273071 536.991882,419.296936 536.991760,385.320831 
	C536.991760,383.543793 536.991821,381.766724 536.991821,379.902710 
	C531.545715,379.902710 526.652039,379.902710 521.364441,379.902710 
	C521.364441,388.926941 521.364502,397.564514 521.364502,406.202118 
	C521.364502,414.931305 521.364441,423.660522 521.364441,433.637848 
	C519.319092,431.244537 518.197266,429.894958 517.036682,428.579559 
	C499.416809,408.607971 470.324432,410.014282 455.290192,432.019073 
	C443.861084,448.747223 442.943726,466.711243 451.664856,485.792450 
M631.218201,508.769165 
	C634.288818,508.769165 637.359436,508.769165 640.758789,508.769165 
	C640.758789,504.659821 640.841064,501.671570 640.707214,498.693024 
	C640.668457,497.831543 640.185852,496.421387 639.606384,496.244019 
	C635.465637,494.976837 635.838013,491.676331 635.834656,488.504700 
	C635.821228,476.008820 635.991272,463.509674 635.759155,451.017944 
	C635.489014,436.487976 630.204041,424.651215 616.287964,418.222015 
	C600.456177,410.907745 574.402283,415.320343 561.198303,427.468140 
	C562.910278,430.739075 564.652161,434.067108 566.215210,437.053558 
	C573.194397,434.082733 579.518982,430.501770 586.314941,428.661316 
	C608.316162,422.703217 623.111938,435.056274 619.586731,455.987030 
	C614.528931,455.117981 609.499817,453.957031 604.405273,453.437042 
	C591.792847,452.149689 579.374207,452.635681 568.215027,459.713074 
	C552.236694,469.846802 551.345642,491.667389 566.394104,503.190765 
	C574.400146,509.321411 583.557251,510.993744 593.326843,509.568573 
	C604.323975,507.964294 613.934387,503.410706 622.018127,494.510529 
	C622.813416,501.005585 623.649963,506.731934 631.218201,508.769165 
M426.269135,492.677216 
	C426.269135,467.275482 426.269135,441.873779 426.269135,416.384125 
	C420.580170,416.384125 415.832153,416.384125 410.518707,416.384125 
	C410.518707,418.446075 410.518707,420.241089 410.518707,422.036133 
	C410.518677,436.525085 410.518646,451.014038 410.518585,465.502991 
	C410.518524,479.994049 401.631226,491.719910 387.737061,495.560760 
	C374.155396,499.315216 364.670013,493.708893 361.852478,479.911285 
	C360.995087,475.712677 360.811920,471.325287 360.771942,467.020142 
	C360.641907,453.032043 360.721161,439.041931 360.719940,425.052612 
	C360.719727,422.265320 360.719940,419.478058 360.719940,416.426819 
	C355.267883,416.426819 350.389404,416.426819 345.049744,416.426819 
	C345.049744,425.022461 344.944336,433.314514 345.073486,441.602936 
	C345.288605,455.409515 344.976440,469.270935 346.134125,483.004028 
	C347.468292,498.830566 356.675812,508.583588 370.323730,509.777283 
	C385.547974,511.108887 398.460876,506.039764 408.555359,494.334473 
	C409.645905,493.069885 410.727478,491.797577 411.489441,490.907257 
	C413.038147,496.032532 413.443298,501.520294 416.172729,505.352661 
	C419.557709,510.105530 425.436554,509.437592 430.762360,507.968262 
	C431.174011,502.371246 432.466766,496.872711 426.269135,492.677216 
M660.666565,450.499878 
	C660.666565,469.583740 660.666565,488.667603 660.666565,507.906616 
	C666.106628,507.906616 670.845825,507.906616 676.073120,507.906616 
	C676.073120,506.013153 676.073059,504.390625 676.073059,502.768097 
	C676.073059,488.777222 676.073242,474.786377 676.073242,460.795502 
	C676.073242,446.487610 683.780273,435.435669 697.317993,430.330536 
	C711.559998,424.959778 722.670837,430.866486 723.876404,446.010895 
	C725.207397,462.731628 724.710999,479.598602 724.983093,496.402313 
	C725.044373,500.185425 724.992065,503.970428 724.992065,507.788025 
	C730.422913,507.788025 735.283386,507.788025 739.799866,507.788025 
	C739.799866,485.436279 740.085815,463.476501 739.586182,441.534576 
	C739.470337,436.444916 737.171875,431.189178 734.990845,426.414978 
	C732.034851,419.944366 726.346313,416.133362 719.393860,415.230133 
	C703.077881,413.110352 689.164734,417.980408 678.303223,430.666260 
	C677.330505,431.802307 676.410034,432.983063 674.533325,435.287506 
	C674.533325,427.973053 674.533325,422.215607 674.533325,416.397949 
	C669.779419,416.397949 665.520081,416.397949 660.666382,416.397949 
	C660.666382,427.611145 660.666382,438.555481 660.666565,450.499878 
M212.860092,432.644714 
	C214.605713,431.405151 216.181335,429.640564 218.124588,429.011414 
	C230.418930,425.030823 242.059448,426.209900 252.641190,434.122467 
	C254.047150,435.173737 255.404861,436.289581 257.100433,437.623840 
	C259.483032,433.974121 261.623199,430.695801 263.695068,427.522034 
	C250.333847,411.613525 216.662155,410.121674 202.531891,424.496887 
	C191.260666,435.963440 194.043961,454.147308 208.319397,461.467010 
	C211.998779,463.353638 215.910278,464.870667 219.846527,466.154755 
	C226.636566,468.369904 233.583847,470.105164 240.364822,472.345459 
	C247.813156,474.806183 250.199234,477.844269 250.089752,483.818115 
	C249.983139,489.634369 246.649872,493.743835 240.009323,495.914917 
	C233.024841,498.198395 225.692734,498.750732 218.894180,496.266937 
	C211.065018,493.406586 203.721451,489.217163 195.815704,485.436951 
	C195.145142,486.640350 194.192520,488.992859 192.685837,490.909882 
	C190.137222,494.152618 191.253250,496.493652 194.244873,498.179932 
	C199.996857,501.422089 205.595871,505.399994 211.801468,507.279999 
	C226.409088,511.705475 241.092697,511.914185 254.573410,503.228149 
	C263.348328,497.574097 265.988617,489.005463 265.118591,478.967804 
	C264.352142,470.124817 258.453949,465.635651 251.252945,462.205750 
	C249.458008,461.350769 247.562927,460.687042 245.675735,460.048065 
	C236.863861,457.064423 227.939148,454.382782 219.245789,451.089020 
	C210.310806,447.703735 208.278488,441.905060 212.860092,432.644714 
M305.723145,416.073792 
	C305.119781,414.611603 304.022888,413.158966 303.994385,411.685638 
	C303.828308,403.106537 303.913055,394.522583 303.913055,385.907532 
	C298.318787,385.907532 293.419800,385.907532 288.097992,385.907532 
	C288.097992,396.066406 288.097992,405.830261 288.097992,416.095093 
	C283.931122,416.095093 280.186737,416.095093 276.153961,416.095093 
	C276.153961,420.324829 276.153961,424.042023 276.153961,428.298889 
	C280.158691,428.298889 283.905914,428.298889 288.207794,428.298889 
	C288.207794,430.617798 288.207672,432.402405 288.207794,434.187012 
	C288.209137,452.501129 288.141724,470.815643 288.237915,489.129272 
	C288.294922,499.984497 293.007935,506.618103 302.462524,508.658936 
	C312.649872,510.857971 322.144501,508.379089 331.445221,503.458923 
	C330.202698,499.372406 329.058258,495.608490 327.858765,491.663483 
	C324.620300,492.788391 321.885651,494.028961 319.017242,494.681732 
	C309.297729,496.893616 303.940399,492.551178 303.919739,482.608612 
	C303.894165,470.288239 303.912994,457.967773 303.912720,445.647369 
	C303.912598,440.033722 303.912689,434.420105 303.912689,428.170776 
	C310.990265,428.170776 317.535522,428.170776 324.068176,428.170776 
	C324.068176,423.801147 324.068176,420.090118 324.068176,416.103088 
	C317.986725,416.103088 312.336365,416.103088 305.723145,416.073792 
M768.100830,476.498901 
	C768.103394,480.997955 768.028809,485.498596 768.123596,489.995728 
	C768.365967,501.496246 774.620178,508.238220 786.151489,509.252075 
	C795.012695,510.031189 803.233398,507.798676 811.353516,503.431580 
	C810.083435,499.406952 808.873962,495.574493 807.654663,491.710693 
	C804.225586,492.875793 801.464294,494.133484 798.566711,494.739990 
	C789.023254,496.737610 783.823486,492.462189 783.787720,482.758942 
	C783.747253,471.761475 783.777100,460.763733 783.776672,449.766113 
	C783.776367,442.801636 783.776611,435.837158 783.776611,428.197998 
	C790.820862,428.197998 797.370178,428.197998 803.816833,428.197998 
	C803.816833,423.800232 803.816833,420.097290 803.816833,415.906342 
	C796.950317,415.906342 790.532471,415.906342 783.681396,415.906342 
	C783.681396,405.649506 783.681396,395.885315 783.681396,385.821808 
	C778.321533,385.821808 773.416809,385.821808 767.940552,385.821808 
	C767.940552,396.028351 767.940552,405.930664 767.940552,416.309814 
	C763.617554,416.309814 759.863342,416.309814 756.154785,416.309814 
	C756.154785,420.541107 756.154785,424.264893 756.154785,428.513062 
	C760.316528,428.513062 764.061462,428.513062 768.100952,428.513062 
	C768.100952,444.530426 768.100952,460.014893 768.100830,476.498901 
M792.145874,566.021606 
	C777.793152,565.683167 769.341187,571.108521 765.616150,583.051270 
	C761.468018,596.350403 765.429810,611.208618 774.783997,617.434082 
	C784.277405,623.752319 800.121582,622.252930 809.834473,613.968567 
	C808.704529,612.055359 807.553406,610.106384 806.440308,608.221741 
	C785.866699,616.309998 773.286377,611.222778 774.026123,594.885620 
	C786.236816,594.885620 798.485840,594.885620 810.649353,594.885620 
	C812.561401,580.173096 805.825012,567.403564 792.145874,566.021606 
M390.266968,577.332336 
	C387.071136,572.151733 382.510529,568.745300 376.716614,566.975220 
	C357.120728,560.988525 340.828247,574.719666 341.954590,596.261475 
	C342.707397,610.659180 352.912231,620.842407 367.180878,621.434265 
	C381.414551,622.024780 392.312378,612.602966 394.169586,598.222656 
	C395.092102,591.079712 394.137177,584.314575 390.266968,577.332336 
M516.918945,559.716431 
	C517.910400,556.658264 518.155151,551.645508 520.039856,550.925537 
	C524.801453,549.106506 530.300598,549.218567 536.441101,548.437744 
	C536.682739,547.851746 537.480164,545.918091 538.397766,543.693054 
	C531.107849,540.547424 523.979126,539.466919 517.100220,542.225403 
	C505.732635,546.783936 507.869202,557.776306 506.900970,566.901611 
	C503.935028,567.115051 501.506775,567.289795 499.107239,567.462524 
	C499.107239,570.155884 499.107239,572.395874 499.107239,574.820923 
	C501.881683,574.942505 504.313904,575.049072 506.938110,575.164001 
	C506.938110,587.229980 506.938110,598.947510 506.938110,610.836487 
	C504.389771,611.036438 502.137512,611.213135 499.782440,611.397888 
	C499.782440,614.375488 499.782440,617.062805 499.782440,619.739380 
	C508.334656,619.739380 516.442322,619.739380 524.672546,619.739380 
	C524.672546,616.786865 524.672546,614.090820 524.672546,611.321960 
	C521.901794,611.135620 519.505371,610.974426 517.171570,610.817444 
	C517.171570,598.675537 517.171570,587.078430 517.171570,574.955688 
	C521.153259,574.955688 524.891052,574.955688 528.763977,574.955688 
	C528.763977,572.174072 528.763977,569.927063 528.763977,567.105225 
	C524.792480,567.105225 521.053162,567.105225 516.916687,567.105225 
	C516.916687,564.568848 516.916687,562.605469 516.918945,559.716431 
M639.930969,593.499390 
	C639.930969,599.276978 639.930969,605.054565 639.930969,610.881348 
	C636.998718,611.057800 634.721802,611.194824 632.377563,611.335876 
	C632.377563,614.356689 632.377563,617.051819 632.377563,619.733459 
	C640.875977,619.733459 648.981812,619.733459 657.270752,619.733459 
	C657.270752,616.784607 657.270752,614.087646 657.270752,611.345276 
	C654.445190,611.148560 652.031067,610.980469 649.532837,610.806580 
	C649.532837,598.738953 649.532837,587.143799 649.532837,575.041748 
	C653.518982,575.041748 657.263306,575.041748 661.190552,575.041748 
	C661.190552,572.160339 661.190552,569.795837 661.190552,566.862854 
	C657.030151,566.862854 653.298706,566.862854 649.650269,566.862854 
	C648.043579,550.245728 650.878540,547.704224 668.399963,549.770935 
	C669.170837,547.921570 669.976868,545.987671 670.939758,543.677490 
	C663.452942,540.567200 656.065979,539.305359 648.905762,542.575378 
	C638.253723,547.440125 640.375671,557.927795 639.678284,566.947632 
	C636.642212,567.125916 634.045776,567.278381 631.474426,567.429382 
	C631.474426,570.153564 631.474426,572.391479 631.474426,574.750916 
	C634.396606,574.926270 636.982483,575.081482 639.930969,575.258484 
	C639.930969,581.232117 639.930969,586.866455 639.930969,593.499390 
M214.035431,612.597656 
	C205.895004,611.014404 201.824158,605.541931 200.554230,597.845032 
	C199.207993,589.685547 200.639420,582.149231 207.587234,576.749634 
	C212.945190,572.585571 221.722290,572.647583 225.891602,577.653320 
	C229.691956,582.215942 233.757980,581.244934 238.233643,580.807007 
	C238.233643,577.900879 238.233643,575.365601 238.233643,573.779541 
	C228.919998,569.864502 220.968781,563.259583 210.616074,566.116516 
	C200.122131,569.012451 193.858704,575.955566 191.383179,586.330444 
	C187.811111,601.300964 195.158707,615.948425 208.123688,620.152039 
	C220.207306,624.070007 232.826813,618.627075 237.695251,607.193604 
	C235.382141,606.023254 233.054581,604.845581 230.487213,603.546631 
	C226.850418,609.716370 221.888657,613.120422 214.035431,612.597656 
z"/>
<path fill="#FAFFFF" opacity="1.000000" stroke="none" 
	d="
M451.467133,485.474182 
	C442.943726,466.711243 443.861084,448.747223 455.290192,432.019073 
	C470.324432,410.014282 499.416809,408.607971 517.036682,428.579559 
	C518.197266,429.894958 519.319092,431.244537 521.364441,433.637848 
	C521.364441,423.660522 521.364502,414.931305 521.364502,406.202118 
	C521.364502,397.564514 521.364441,388.926941 521.364441,379.902710 
	C526.652039,379.902710 531.545715,379.902710 536.991821,379.902710 
	C536.991821,381.766724 536.991760,383.543793 536.991760,385.320831 
	C536.991882,419.296936 536.979980,453.273071 537.010071,487.249146 
	C537.013184,490.797821 536.070557,494.831512 541.035339,496.331543 
	C541.549255,496.486786 541.876892,497.986298 541.908875,498.875793 
	C542.015869,501.852264 541.949463,504.834961 541.949463,507.695343 
	C530.438110,511.406738 525.046265,507.216888 522.989441,492.603638 
	C511.307648,506.643829 497.051971,513.141541 479.265259,508.641022 
	C466.597534,505.435791 457.670441,497.269562 451.467133,485.474182 
M521.369812,460.512787 
	C521.190552,456.367981 521.846924,451.969238 520.678589,448.125031 
	C516.852783,435.536957 499.389374,425.848267 486.545502,428.619659 
	C473.526428,431.428894 464.046417,442.948853 462.200500,458.203430 
	C460.427277,472.856903 468.152008,487.411072 480.505829,493.678131 
	C499.600800,503.364929 525.579956,486.496399 521.439209,468.488617 
	C520.929810,466.273315 521.369934,463.839661 521.369812,460.512787 
z"/>
<path fill="#FAFFFF" opacity="1.000000" stroke="none" 
	d="
M630.824219,508.659241 
	C623.649963,506.731934 622.813416,501.005585 622.018127,494.510529 
	C613.934387,503.410706 604.323975,507.964294 593.326843,509.568573 
	C583.557251,510.993744 574.400146,509.321411 566.394104,503.190765 
	C551.345642,491.667389 552.236694,469.846802 568.215027,459.713074 
	C579.374207,452.635681 591.792847,452.149689 604.405273,453.437042 
	C609.499817,453.957031 614.528931,455.117981 619.586731,455.987030 
	C623.111938,435.056274 608.316162,422.703217 586.314941,428.661316 
	C579.518982,430.501770 573.194397,434.082733 566.215210,437.053558 
	C564.652161,434.067108 562.910278,430.739075 561.198303,427.468140 
	C574.402283,415.320343 600.456177,410.907745 616.287964,418.222015 
	C630.204041,424.651215 635.489014,436.487976 635.759155,451.017944 
	C635.991272,463.509674 635.821228,476.008820 635.834656,488.504700 
	C635.838013,491.676331 635.465637,494.976837 639.606384,496.244019 
	C640.185852,496.421387 640.668457,497.831543 640.707214,498.693024 
	C640.841064,501.671570 640.758789,504.659821 640.758789,508.769165 
	C637.359436,508.769165 634.288818,508.769165 630.824219,508.659241 
M620.073425,478.995544 
	C620.089172,476.003754 620.297058,472.994324 620.025146,470.028900 
	C619.917908,468.858887 618.973816,467.098022 618.016296,466.774780 
	C605.804016,462.652039 593.434326,460.863403 581.043518,465.954285 
	C574.957825,468.454651 570.753174,472.739044 570.607544,479.793365 
	C570.459778,486.956146 573.843079,492.253143 579.967590,495.678955 
	C593.593079,503.300598 615.080200,494.750854 620.073425,478.995544 
z"/>
<path fill="#FBFFFF" opacity="1.000000" stroke="none" 
	d="
M426.423401,493.079987 
	C432.466766,496.872711 431.174011,502.371246 430.762360,507.968262 
	C425.436554,509.437592 419.557709,510.105530 416.172729,505.352661 
	C413.443298,501.520294 413.038147,496.032532 411.489441,490.907257 
	C410.727478,491.797577 409.645905,493.069885 408.555359,494.334473 
	C398.460876,506.039764 385.547974,511.108887 370.323730,509.777283 
	C356.675812,508.583588 347.468292,498.830566 346.134125,483.004028 
	C344.976440,469.270935 345.288605,455.409515 345.073486,441.602936 
	C344.944336,433.314514 345.049744,425.022461 345.049744,416.426819 
	C350.389404,416.426819 355.267883,416.426819 360.719940,416.426819 
	C360.719940,419.478058 360.719727,422.265320 360.719940,425.052612 
	C360.721161,439.041931 360.641907,453.032043 360.771942,467.020142 
	C360.811920,471.325287 360.995087,475.712677 361.852478,479.911285 
	C364.670013,493.708893 374.155396,499.315216 387.737061,495.560760 
	C401.631226,491.719910 410.518524,479.994049 410.518585,465.502991 
	C410.518646,451.014038 410.518677,436.525085 410.518707,422.036133 
	C410.518707,420.241089 410.518707,418.446075 410.518707,416.384125 
	C415.832153,416.384125 420.580170,416.384125 426.269135,416.384125 
	C426.269135,441.873779 426.269135,467.275482 426.423401,493.079987 
z"/>
<path fill="#FDFFFF" opacity="1.000000" stroke="none" 
	d="
M660.666504,449.999878 
	C660.666382,438.555481 660.666382,427.611145 660.666382,416.397949 
	C665.520081,416.397949 669.779419,416.397949 674.533325,416.397949 
	C674.533325,422.215607 674.533325,427.973053 674.533325,435.287506 
	C676.410034,432.983063 677.330505,431.802307 678.303223,430.666260 
	C689.164734,417.980408 703.077881,413.110352 719.393860,415.230133 
	C726.346313,416.133362 732.034851,419.944366 734.990845,426.414978 
	C737.171875,431.189178 739.470337,436.444916 739.586182,441.534576 
	C740.085815,463.476501 739.799866,485.436279 739.799866,507.788025 
	C735.283386,507.788025 730.422913,507.788025 724.992065,507.788025 
	C724.992065,503.970428 725.044373,500.185425 724.983093,496.402313 
	C724.710999,479.598602 725.207397,462.731628 723.876404,446.010895 
	C722.670837,430.866486 711.559998,424.959778 697.317993,430.330536 
	C683.780273,435.435669 676.073242,446.487610 676.073242,460.795502 
	C676.073242,474.786377 676.073059,488.777222 676.073059,502.768097 
	C676.073059,504.390625 676.073120,506.013153 676.073120,507.906616 
	C670.845825,507.906616 666.106628,507.906616 660.666565,507.906616 
	C660.666565,488.667603 660.666565,469.583740 660.666504,449.999878 
z"/>
<path fill="#FAFFFF" opacity="1.000000" stroke="none" 
	d="
M212.597229,432.942261 
	C208.278488,441.905060 210.310806,447.703735 219.245789,451.089020 
	C227.939148,454.382782 236.863861,457.064423 245.675735,460.048065 
	C247.562927,460.687042 249.458008,461.350769 251.252945,462.205750 
	C258.453949,465.635651 264.352142,470.124817 265.118591,478.967804 
	C265.988617,489.005463 263.348328,497.574097 254.573410,503.228149 
	C241.092697,511.914185 226.409088,511.705475 211.801468,507.279999 
	C205.595871,505.399994 199.996857,501.422089 194.244873,498.179932 
	C191.253250,496.493652 190.137222,494.152618 192.685837,490.909882 
	C194.192520,488.992859 195.145142,486.640350 195.815704,485.436951 
	C203.721451,489.217163 211.065018,493.406586 218.894180,496.266937 
	C225.692734,498.750732 233.024841,498.198395 240.009323,495.914917 
	C246.649872,493.743835 249.983139,489.634369 250.089752,483.818115 
	C250.199234,477.844269 247.813156,474.806183 240.364822,472.345459 
	C233.583847,470.105164 226.636566,468.369904 219.846527,466.154755 
	C215.910278,464.870667 211.998779,463.353638 208.319397,461.467010 
	C194.043961,454.147308 191.260666,435.963440 202.531891,424.496887 
	C216.662155,410.121674 250.333847,411.613525 263.695068,427.522034 
	C261.623199,430.695801 259.483032,433.974121 257.100433,437.623840 
	C255.404861,436.289581 254.047150,435.173737 252.641190,434.122467 
	C242.059448,426.209900 230.418930,425.030823 218.124588,429.011414 
	C216.181335,429.640564 214.605713,431.405151 212.597229,432.942261 
z"/>
<path fill="#F9FFFF" opacity="1.000000" stroke="none" 
	d="
M306.204590,416.088440 
	C312.336365,416.103088 317.986725,416.103088 324.068176,416.103088 
	C324.068176,420.090118 324.068176,423.801147 324.068176,428.170776 
	C317.535522,428.170776 310.990265,428.170776 303.912689,428.170776 
	C303.912689,434.420105 303.912598,440.033722 303.912720,445.647369 
	C303.912994,457.967773 303.894165,470.288239 303.919739,482.608612 
	C303.940399,492.551178 309.297729,496.893616 319.017242,494.681732 
	C321.885651,494.028961 324.620300,492.788391 327.858765,491.663483 
	C329.058258,495.608490 330.202698,499.372406 331.445221,503.458923 
	C322.144501,508.379089 312.649872,510.857971 302.462524,508.658936 
	C293.007935,506.618103 288.294922,499.984497 288.237915,489.129272 
	C288.141724,470.815643 288.209137,452.501129 288.207794,434.187012 
	C288.207672,432.402405 288.207794,430.617798 288.207794,428.298889 
	C283.905914,428.298889 280.158691,428.298889 276.153961,428.298889 
	C276.153961,424.042023 276.153961,420.324829 276.153961,416.095093 
	C280.186737,416.095093 283.931122,416.095093 288.097992,416.095093 
	C288.097992,405.830261 288.097992,396.066406 288.097992,385.907532 
	C293.419800,385.907532 298.318787,385.907532 303.913055,385.907532 
	C303.913055,394.522583 303.828308,403.106537 303.994385,411.685638 
	C304.022888,413.158966 305.119781,414.611603 306.204590,416.088440 
z"/>
<path fill="#F9FFFF" opacity="1.000000" stroke="none" 
	d="
M768.100891,475.999115 
	C768.100952,460.014893 768.100952,444.530426 768.100952,428.513062 
	C764.061462,428.513062 760.316528,428.513062 756.154785,428.513062 
	C756.154785,424.264893 756.154785,420.541107 756.154785,416.309814 
	C759.863342,416.309814 763.617554,416.309814 767.940552,416.309814 
	C767.940552,405.930664 767.940552,396.028351 767.940552,385.821808 
	C773.416809,385.821808 778.321533,385.821808 783.681396,385.821808 
	C783.681396,395.885315 783.681396,405.649506 783.681396,415.906342 
	C790.532471,415.906342 796.950317,415.906342 803.816833,415.906342 
	C803.816833,420.097290 803.816833,423.800232 803.816833,428.197998 
	C797.370178,428.197998 790.820862,428.197998 783.776611,428.197998 
	C783.776611,435.837158 783.776367,442.801636 783.776672,449.766113 
	C783.777100,460.763733 783.747253,471.761475 783.787720,482.758942 
	C783.823486,492.462189 789.023254,496.737610 798.566711,494.739990 
	C801.464294,494.133484 804.225586,492.875793 807.654663,491.710693 
	C808.873962,495.574493 810.083435,499.406952 811.353516,503.431580 
	C803.233398,507.798676 795.012695,510.031189 786.151489,509.252075 
	C774.620178,508.238220 768.365967,501.496246 768.123596,489.995728 
	C768.028809,485.498596 768.103394,480.997955 768.100891,475.999115 
z"/>
<path fill="#F6FEFF" opacity="1.000000" stroke="none" 
	d="
M792.586426,566.056274 
	C805.825012,567.403564 812.561401,580.173096 810.649353,594.885620 
	C798.485840,594.885620 786.236816,594.885620 774.026123,594.885620 
	C773.286377,611.222778 785.866699,616.309998 806.440308,608.221741 
	C807.553406,610.106384 808.704529,612.055359 809.834473,613.968567 
	C800.121582,622.252930 784.277405,623.752319 774.783997,617.434082 
	C765.429810,611.208618 761.468018,596.350403 765.616150,583.051270 
	C769.341187,571.108521 777.793152,565.683167 792.586426,566.056274 
M786.779663,573.979065 
	C778.663025,575.224243 775.086487,579.056396 774.687622,586.977478 
	C783.394592,586.977478 792.099243,586.977478 800.823120,586.977478 
	C800.402771,577.802856 796.678589,574.237488 786.779663,573.979065 
z"/>
<path fill="#F9FFFF" opacity="1.000000" stroke="none" 
	d="
M390.474915,577.641968 
	C394.137177,584.314575 395.092102,591.079712 394.169586,598.222656 
	C392.312378,612.602966 381.414551,622.024780 367.180878,621.434265 
	C352.912231,620.842407 342.707397,610.659180 341.954590,596.261475 
	C340.828247,574.719666 357.120728,560.988525 376.716614,566.975220 
	C382.510529,568.745300 387.071136,572.151733 390.474915,577.641968 
M351.915649,592.602905 
	C351.972778,594.265808 351.896515,595.946045 352.109375,597.588745 
	C353.210815,606.088013 359.213226,612.499939 366.577515,613.145569 
	C374.599457,613.848938 381.074707,609.477539 383.592529,601.486023 
	C385.510193,595.399353 385.351501,589.289917 382.800964,583.424316 
	C380.080902,577.168945 375.168457,573.961243 368.290710,573.949585 
	C358.918915,573.933655 352.902710,580.481873 351.915649,592.602905 
z"/>
<path fill="#F5FEFF" opacity="1.000000" stroke="none" 
	d="
M516.917847,560.179260 
	C516.916687,562.605469 516.916687,564.568848 516.916687,567.105225 
	C521.053162,567.105225 524.792480,567.105225 528.763977,567.105225 
	C528.763977,569.927063 528.763977,572.174072 528.763977,574.955688 
	C524.891052,574.955688 521.153259,574.955688 517.171570,574.955688 
	C517.171570,587.078430 517.171570,598.675537 517.171570,610.817444 
	C519.505371,610.974426 521.901794,611.135620 524.672546,611.321960 
	C524.672546,614.090820 524.672546,616.786865 524.672546,619.739380 
	C516.442322,619.739380 508.334656,619.739380 499.782440,619.739380 
	C499.782440,617.062805 499.782440,614.375488 499.782440,611.397888 
	C502.137512,611.213135 504.389771,611.036438 506.938110,610.836487 
	C506.938110,598.947510 506.938110,587.229980 506.938110,575.164001 
	C504.313904,575.049072 501.881683,574.942505 499.107239,574.820923 
	C499.107239,572.395874 499.107239,570.155884 499.107239,567.462524 
	C501.506775,567.289795 503.935028,567.115051 506.900970,566.901611 
	C507.869202,557.776306 505.732635,546.783936 517.100220,542.225403 
	C523.979126,539.466919 531.107849,540.547424 538.397766,543.693054 
	C537.480164,545.918091 536.682739,547.851746 536.441101,548.437744 
	C530.300598,549.218567 524.801453,549.106506 520.039856,550.925537 
	C518.155151,551.645508 517.910400,556.658264 516.917847,560.179260 
z"/>
<path fill="#F9FFFF" opacity="1.000000" stroke="none" 
	d="
M639.930969,593.000122 
	C639.930969,586.866455 639.930969,581.232117 639.930969,575.258484 
	C636.982483,575.081482 634.396606,574.926270 631.474426,574.750916 
	C631.474426,572.391479 631.474426,570.153564 631.474426,567.429382 
	C634.045776,567.278381 636.642212,567.125916 639.678284,566.947632 
	C640.375671,557.927795 638.253723,547.440125 648.905762,542.575378 
	C656.065979,539.305359 663.452942,540.567200 670.939758,543.677490 
	C669.976868,545.987671 669.170837,547.921570 668.399963,549.770935 
	C650.878540,547.704224 648.043579,550.245728 649.650269,566.862854 
	C653.298706,566.862854 657.030151,566.862854 661.190552,566.862854 
	C661.190552,569.795837 661.190552,572.160339 661.190552,575.041748 
	C657.263306,575.041748 653.518982,575.041748 649.532837,575.041748 
	C649.532837,587.143799 649.532837,598.738953 649.532837,610.806580 
	C652.031067,610.980469 654.445190,611.148560 657.270752,611.345276 
	C657.270752,614.087646 657.270752,616.784607 657.270752,619.733459 
	C648.981812,619.733459 640.875977,619.733459 632.377563,619.733459 
	C632.377563,617.051819 632.377563,614.356689 632.377563,611.335876 
	C634.721802,611.194824 636.998718,611.057800 639.930969,610.881348 
	C639.930969,605.054565 639.930969,599.276978 639.930969,593.000122 
z"/>
<path fill="#F9FFFF" opacity="1.000000" stroke="none" 
	d="
M214.429138,612.657898 
	C221.888657,613.120422 226.850418,609.716370 230.487213,603.546631 
	C233.054581,604.845581 235.382141,606.023254 237.695251,607.193604 
	C232.826813,618.627075 220.207306,624.070007 208.123688,620.152039 
	C195.158707,615.948425 187.811111,601.300964 191.383179,586.330444 
	C193.858704,575.955566 200.122131,569.012451 210.616074,566.116516 
	C220.968781,563.259583 228.919998,569.864502 238.233643,573.779541 
	C238.233643,575.365601 238.233643,577.900879 238.233643,580.807007 
	C233.757980,581.244934 229.691956,582.215942 225.891602,577.653320 
	C221.722290,572.647583 212.945190,572.585571 207.587234,576.749634 
	C200.639420,582.149231 199.207993,589.685547 200.554230,597.845032 
	C201.824158,605.541931 205.895004,611.014404 214.429138,612.657898 
z"/>
<path fill="#02EBFF" opacity="1.000000" stroke="none" 
	d="
M521.369873,461.010010 
	C521.369934,463.839661 520.929810,466.273315 521.439209,468.488617 
	C525.579956,486.496399 499.600800,503.364929 480.505829,493.678131 
	C468.152008,487.411072 460.427277,472.856903 462.200500,458.203430 
	C464.046417,442.948853 473.526428,431.428894 486.545502,428.619659 
	C499.389374,425.848267 516.852783,435.536957 520.678589,448.125031 
	C521.846924,451.969238 521.190552,456.367981 521.369873,461.010010 
z"/>
<path fill="#02EBFF" opacity="1.000000" stroke="none" 
	d="
M620.036499,479.429138 
	C615.080200,494.750854 593.593079,503.300598 579.967590,495.678955 
	C573.843079,492.253143 570.459778,486.956146 570.607544,479.793365 
	C570.753174,472.739044 574.957825,468.454651 581.043518,465.954285 
	C593.434326,460.863403 605.804016,462.652039 618.016296,466.774780 
	C618.973816,467.098022 619.917908,468.858887 620.025146,470.028900 
	C620.297058,472.994324 620.089172,476.003754 620.036499,479.429138 
z"/>
<path fill="#05EBFF" opacity="1.000000" stroke="none" 
	d="
M787.203735,573.961792 
	C796.678589,574.237488 800.402771,577.802856 800.823120,586.977478 
	C792.099243,586.977478 783.394592,586.977478 774.687622,586.977478 
	C775.086487,579.056396 778.663025,575.224243 787.203735,573.961792 
z"/>
<path fill="#04EBFF" opacity="1.000000" stroke="none" 
	d="
M351.926880,592.153564 
	C352.902710,580.481873 358.918915,573.933655 368.290710,573.949585 
	C375.168457,573.961243 380.080902,577.168945 382.800964,583.424316 
	C385.351501,589.289917 385.510193,595.399353 383.592529,601.486023 
	C381.074707,609.477539 374.599457,613.848938 366.577515,613.145569 
	C359.213226,612.499939 353.210815,606.088013 352.109375,597.588745 
	C351.896515,595.946045 351.972778,594.265808 351.926880,592.153564 
z"/>
</svg>